<svg width="69" height="19" fill="none" xmlns="http://www.w3.org/2000/svg"><path d="M17.6986 18.5756C15.9243 18.5759 14.1899 18.05 12.7145 17.0645C11.2391 16.0791 10.0891 14.6782 9.4099 13.0391C8.7307 11.4001 8.5528 9.59638 8.8987 7.85618C9.2446 6.11598 10.0987 4.51738 11.3531 3.26267C12.6075 2.00791 14.2058 1.1533 15.9458 0.806908C17.6859 0.460518 19.4897 0.637898 21.1289 1.31662C22.7682 1.99535 24.1694 3.14493 25.1553 4.61998C26.1413 6.09508 26.6676 7.82938 26.6679 9.60358V9.60498C26.6654 11.9831 25.7197 14.2632 24.0382 15.945C22.3567 17.6267 20.0768 18.5728 17.6986 18.5756Z" fill="#FFBA46"/><path d="M8.97066 18.5756C7.19645 18.5756 5.46206 18.0495 3.98684 17.0638C2.51162 16.0781 1.36183 14.6771 0.682856 13.0379C0.00388616 11.3987 -0.173764 9.59498 0.172376 7.85488C0.518506 6.11468 1.37289 4.51628 2.62746 3.26173C3.88203 2.00716 5.48045 1.15278 7.22059 0.806653C8.96076 0.460513 10.7645 0.638163 12.4036 1.31713C14.0428 1.9961 15.4438 3.14589 16.4296 4.62108C17.4153 6.09638 17.9414 7.83068 17.9414 9.60498C17.9389 11.9834 16.993 14.2637 15.3112 15.9455C13.6294 17.6272 11.3491 18.5732 8.97066 18.5756Z" fill="#E50B18"/><path d="M61.0558 5.85302C60.436 5.62712 59.7808 5.51382 59.1211 5.51832C56.9878 5.51832 55.4811 6.59302 55.4705 8.13562C55.4571 9.26902 56.5411 9.90762 57.3611 10.2863C58.2025 10.6756 58.4838 10.921 58.4811 11.269C58.4758 11.7983 57.8091 12.0383 57.1891 12.0383C56.3371 12.0383 55.8718 11.9196 55.1558 11.6223L54.8905 11.4983L54.5878 13.2743C55.1065 13.4903 56.0411 13.6756 57.0065 13.6916C59.2745 13.6916 60.7571 12.6236 60.7745 10.9823C60.7931 10.077 60.2065 9.39302 58.9718 8.82762C58.2211 8.46102 57.7558 8.21562 57.7558 7.84362C57.7558 7.51432 58.1545 7.16232 58.9878 7.16232C59.5424 7.14892 60.0936 7.25302 60.6051 7.46762L60.8051 7.55702L61.1078 5.84102L61.0558 5.85302ZM66.5918 5.66232H64.9251C64.4065 5.66232 64.0158 5.80502 63.7891 6.31962L60.5838 13.581H62.8518L63.3051 12.3903L66.0731 12.393C66.1385 12.6716 66.3385 13.581 66.3385 13.581H68.3385L66.5918 5.66232ZM52.4025 5.59562H54.5638L53.2118 13.5183H51.0531L52.4025 5.59302V5.59562ZM46.9158 9.96232L47.1398 11.0623L49.2518 5.66232H51.5411L48.1398 13.5703H45.8558L43.9892 6.87432C43.9589 6.76392 43.8879 6.66912 43.7905 6.60902C43.1177 6.26142 42.4048 5.99772 41.6678 5.82362L41.6972 5.65702H45.1758C45.6478 5.67562 46.0278 5.82362 46.1545 6.32762L46.9145 9.96632V9.96232H46.9158ZM63.9251 10.7703L64.7865 8.55432C64.7758 8.57832 64.9638 8.09702 65.0731 7.79962L65.2211 8.48362L65.7211 10.769H63.9238V10.7703H63.9251Z" fill="#8099F7"/></svg>