<svg width="112" height="94" fill="none" xmlns="http://www.w3.org/2000/svg"><path d="M108.996 40.9142C104.992 37.5536 98.4987 37.5536 94.494 40.9142H73.5061L88.347 28.4588C94.0104 28.4588 98.6012 24.6054 98.6012 19.8521C98.6012 15.0989 94.0104 11.2451 88.347 11.2451C82.6831 11.2451 78.0923 15.0989 78.0923 19.8521L63.2514 32.308V14.6926C67.2561 11.3315 67.2561 5.88217 63.2514 2.52111C59.2463 -0.84037 52.7535 -0.84037 48.7488 2.52111C44.7442 5.88259 44.7442 11.3319 48.7488 14.6926V32.308L33.9084 19.8517C33.9084 15.0989 29.3172 11.2455 23.6537 11.2455C17.9903 11.2455 13.3991 15.0989 13.3991 19.8517C13.3991 24.6054 17.9903 28.4588 23.6532 28.4588L38.4947 40.9142H17.5062C13.5011 37.5531 7.00826 37.5536 3.00311 40.9142C-1.00104 44.2757 -1.00104 49.725 3.00311 53.0865C7.00826 56.4472 13.5011 56.4472 17.5062 53.0865H38.4937L23.6537 65.5415C17.9903 65.5415 13.3991 69.3945 13.3991 74.1478C13.3991 78.9014 17.9903 82.7548 23.6532 82.7548C29.3172 82.7548 33.9084 78.9014 33.9084 74.1482L48.7488 61.6923V79.3073C44.7442 82.6684 44.7442 88.1181 48.7488 91.4792C52.754 94.8403 59.2468 94.8403 63.2519 91.4792C67.2561 88.1177 67.2561 82.6684 63.2519 79.3069V61.6923L78.0923 74.1482C78.0923 78.9014 82.6831 82.7544 88.3465 82.7544C94.0104 82.7544 98.6017 78.9014 98.6017 74.1482C98.6017 69.3945 94.0104 65.5415 88.347 65.5415L73.5056 53.0857H94.494C98.4992 56.4472 104.992 56.4472 108.996 53.0857C113.001 49.7246 113.001 44.2753 108.996 40.9142Z" fill="#FFB13B"/></svg>