<svg width="67" height="64" viewBox="0 0 67 64" fill="none" xmlns="http://www.w3.org/2000/svg">
<path d="M65.0373 27.557C62.6478 25.2935 58.7735 25.2935 56.384 27.557H43.8606L52.7161 19.1679C56.0954 19.1679 58.8347 16.5725 58.8347 13.371C58.8347 10.1696 56.0954 7.57392 52.7161 7.57392C49.3365 7.57392 46.5972 10.1696 46.5972 13.371L37.7417 21.7605V9.89592C40.1313 7.63214 40.1313 3.96183 37.7417 1.69805C35.3519 -0.566016 31.4777 -0.566016 29.0881 1.69805C26.6986 3.96211 26.6986 7.63242 29.0881 9.89592V21.7605L20.2329 13.3708C20.2329 10.1696 17.4934 7.5742 14.114 7.5742C10.7347 7.5742 7.99514 10.1696 7.99514 13.3708C7.99514 16.5725 10.7347 19.1679 14.1137 19.1679L22.9695 27.557H10.4458C8.056 25.2932 4.18178 25.2935 1.79194 27.557C-0.597313 29.8211 -0.597313 33.4914 1.79194 35.7555C4.18178 38.019 8.056 38.019 10.4458 35.7555H22.9689L14.114 44.1443C10.7347 44.1443 7.99514 46.7394 7.99514 49.9409C7.99514 53.1426 10.7347 55.738 14.1137 55.738C17.4934 55.738 20.2329 53.1426 20.2329 49.9411L29.0881 41.5517V53.416C26.6986 55.6798 26.6986 59.3504 29.0881 61.6141C31.478 63.8779 35.3522 63.8779 37.742 61.6141C40.1313 59.3501 40.1313 55.6798 37.742 53.4157V41.5517L46.5972 49.9411C46.5972 53.1426 49.3365 55.7377 52.7158 55.7377C56.0954 55.7377 58.835 53.1426 58.835 49.9411C58.835 46.7394 56.0954 44.1443 52.7161 44.1443L43.8603 35.7549H56.384C58.7738 38.019 62.6481 38.019 65.0373 35.7549C67.4271 33.4911 67.4271 29.8208 65.0373 27.557Z" fill="#FFB13B"/>
</svg>
