<svg width="120" height="123" viewBox="0 0 120 123" fill="none" xmlns="http://www.w3.org/2000/svg">
<path fill-rule="evenodd" clip-rule="evenodd" d="M69.6615 11.9969C69.5896 13.4927 70.125 15.1646 71.1569 16.6744C71.8567 17.6991 72.3047 16.9641 72.3118 16.4591C72.3357 15.3364 72.9753 15.057 73.9043 14.8469C76.2781 14.3087 77.5353 12.4849 77.3016 10.1392C77.1346 8.43774 77.4382 8.96705 78.8772 9.13955C81.0226 9.40273 83.0248 9.11301 84.7526 7.58776C85.2951 7.10417 85.2576 6.77022 84.6516 6.42005C82.2415 5.01939 79.7453 3.88486 76.9701 3.58998C74.8475 3.36514 73.0614 4.06989 71.6185 5.74258C70.1826 7.41305 69.6757 9.42042 69.6602 11.9962L69.6615 11.9969ZM62.9666 14.367C61.9787 14.3544 60.9882 14.3625 59.9978 14.3625V14.3559C59.041 14.3559 58.079 14.3449 57.1235 14.3625C56.7727 14.3707 56.2613 14.2571 56.2133 14.7827C56.148 15.4322 56.7468 15.3482 57.0912 15.3578C59.0675 15.4123 61.0472 15.4219 63.0261 15.4175C63.3621 15.4175 63.867 15.4897 63.8275 14.8845C63.79 14.3537 63.3381 14.3714 62.9666 14.367ZM56.8465 13.3312L63.1892 13.3268C63.7214 13.3371 64.1253 13.1418 64.5008 12.7341C67.509 9.48456 66.7057 3.43886 62.9225 0.955999C60.4108 -0.693833 57.5372 -0.176325 55.6799 2.26156C53.5359 5.06952 53.4368 9.64821 55.4301 12.5726C55.7945 13.1012 56.2276 13.346 56.8465 13.3312ZM58.2933 63.9017C58.3192 65.4764 59.0507 66.0824 60.5344 65.7521C61.2718 65.5877 61.655 65.2176 61.6324 64.3514C61.5909 62.4908 61.6214 60.6286 61.6214 58.7665H61.8046C61.8046 54.6684 62.1159 54.5077 59.4508 54.6633C58.3244 54.7289 58.1088 54.939 58.1295 56.1627C58.1703 58.7436 58.2467 61.3216 58.2933 63.9017ZM58.5775 80.8284C58.615 82.4929 58.8164 82.622 60.4127 82.5423C61.1617 82.5047 61.4653 82.1796 61.4407 81.3894C61.4051 80.2489 61.431 79.1063 61.431 77.96H61.4886C61.4886 76.9168 61.4602 75.8715 61.4925 74.8276C61.5301 73.6032 61.2381 73.2338 60.0865 73.1822C59.0507 73.1343 58.5497 73.6179 58.5445 74.7547C58.5289 76.7797 58.5264 78.8055 58.5775 80.8284ZM58.8688 92.0867C58.852 93.5626 61.0685 93.7204 61.1546 92.2696C61.2122 91.2596 61.2045 90.2445 61.207 89.2309C61.207 88.8689 61.0271 88.636 60.6717 88.5305C58.8028 87.9725 58.8559 89.3039 58.8559 90.6124H58.8707L58.8688 92.0867ZM59.9991 102.066C61.1391 102.022 61.5566 98.9389 60.0276 98.9028C59.3012 98.8851 59.0436 99.6444 59.0507 100.514C59.0436 101.262 59.5058 102.087 59.9991 102.066ZM59.098 110.049C59.1355 111.275 60.8704 111.379 60.8704 109.961C60.8665 109.698 60.8704 109.434 60.8704 109.179H60.8801C60.8801 108.311 61.0452 107.166 60.0463 107.083C58.8416 106.984 59.0649 108.963 59.098 110.049ZM59.4275 116.187C59.4229 117.917 59.421 119.647 59.4294 121.378C59.4352 122.614 60.6328 122.552 60.6613 121.405C60.6879 120.522 60.6704 119.64 60.6704 118.76H60.6918C60.6918 117.91 60.6937 117.062 60.6918 116.212C60.6898 115.724 60.6024 115.224 60.0263 115.244C59.5175 115.262 59.4288 115.737 59.4275 116.187ZM58.6066 114.934C58.8067 114.642 59.0637 114.34 58.5781 114.062C57.4258 113.408 56.6905 115.838 57.6893 117.648C57.8181 117.883 57.9353 118.281 58.2797 118.115C59.0235 117.751 57.3838 116.739 58.6066 114.934ZM61.4233 113.224C60.6005 112.505 59.6158 112.079 58.6856 111.554C57.2964 110.769 56.9041 109.085 57.7767 107.703C58.1949 107.047 58.8047 106.704 58.5251 106.257C58.002 105.417 56.9326 105.35 56.3454 106.128C55.0902 107.798 55.4877 110.408 57.2854 111.882C58.0907 112.542 58.9976 113.069 59.856 113.652C61.1734 114.54 62.4228 115.459 61.646 117.266C61.5883 117.667 61.534 117.938 61.8033 118.026C62.5166 118.257 63.6981 115.212 61.4233 113.224ZM58.4707 99.0937C59.3796 97.7823 58.1761 97.6805 57.4103 97.0886C56.5791 96.4465 56.0276 97.5272 55.7311 98.2747C54.7652 100.722 55.5252 103 57.8855 104.57C58.9083 105.249 60.0412 105.746 61.0407 106.45C62.8902 107.751 63.087 109.544 61.6511 111.304C61.0776 112 62.024 112.188 62.0654 112.186C62.36 112.126 62.6383 111.919 62.8992 111.689C65.0349 109.802 64.6684 106.194 62.1548 104.611C61.4077 104.143 60.5856 103.813 59.8185 103.38C58.0389 102.371 57.4323 100.59 58.4707 99.0937ZM63.7777 97.2795C61.4479 94.2578 59.4093 94.7001 57.3624 92.8866C56.1324 91.797 55.9143 91.0444 56.3849 89.4358C56.8737 87.7587 56.2444 88.26 54.9627 87.6798C54.514 87.4778 54.2797 87.6533 54.1043 88.1037C53.1177 90.6345 54.1949 93.9319 56.4684 95.2906C57.6874 96.0167 58.9277 96.7008 60.1253 97.4645C62.1975 98.79 62.4759 99.926 61.3546 102.174C61.2135 102.46 60.9682 102.809 61.3365 103.036C61.813 103.329 62.3529 103.511 62.7743 103.701C63.891 103.899 65.6311 99.682 63.779 97.2795H63.7777ZM60.4302 83.5759C59.9648 83.5508 59.5006 83.5729 59.0326 83.5427C53.3773 83.1704 52.5694 76.8616 55.7278 74.0927C56.5409 73.3798 57.5851 73.1196 57.5035 72.6551C57.444 72.3042 57.0769 72.3079 56.816 72.2504C55.2643 71.9032 53.7599 71.3901 52.28 70.7753C51.8133 70.5792 51.4119 70.4878 51.0882 70.8984C50.4726 71.6754 49.7469 72.3816 49.4368 73.3687C48.4011 76.6942 48.223 79.8899 50.6221 82.7694C52.6296 85.1749 54.8597 87.0709 58.0564 87.3171C60.7565 87.5235 63.9816 86.8578 63.7136 90.7642C63.5382 93.3149 61.5132 93.2051 61.6926 94.0418C61.8149 94.6234 63.5744 95.4137 64.0379 95.0783C64.9714 94.403 65.7139 93.5773 66.1567 92.4244C67.8936 87.9076 64.1098 83.7734 60.4302 83.5759ZM52.6956 53.873C50.6467 53.7101 48.5817 53.5501 46.6416 52.8299C45.5682 52.4318 44.9649 52.7901 44.3473 53.6253C41.846 57.0039 42.1865 61.9475 45.0614 65.1623C47.5336 67.9194 50.6578 69.3429 54.0188 70.3374C56.3247 71.0178 58.6493 71.6209 60.9591 72.2807C62.294 72.6625 63.5032 73.3112 64.5862 74.2357C67.2527 76.5121 66.9491 80.8601 64.0062 82.4885C62.3645 83.3967 64.8756 84.089 66.0124 85.6113C66.0985 85.7285 66.2538 85.7904 66.4001 85.8936C66.661 85.7211 66.9161 85.5899 67.1297 85.41C68.2276 84.4841 69.1184 83.3577 70.0286 82.2349C72.6257 79.037 71.9758 71.7845 67.3045 69.4137C62.8811 67.1704 58.8008 66.9316 54.8377 65.4174C52.8335 64.6515 51.2307 63.4167 50.3418 61.2766C49.9923 60.4384 49.9644 59.6673 50.2493 58.8173C51.612 54.7503 53.9949 54.9515 53.9392 54.2792C53.9055 53.8789 53.1449 53.9091 52.6956 53.873ZM49.6259 34.7717C48.4069 35.5089 47.1497 35.9445 45.7592 36.0794C44.7714 36.1745 43.7945 36.3986 42.8196 36.5992C41.0801 36.9537 39.8314 37.9939 39.0559 39.6666C38.145 41.6334 38.4253 43.5568 39.2928 45.4322C40.9105 48.9449 43.6074 51.0805 47.186 51.8678C51.7563 52.8712 56.4089 53.2678 61.0575 53.6437C65.253 53.9821 69.3831 54.2129 70.0532 59.6128C70.5063 63.2656 66.5458 65.1793 63.9648 65.9025C63.6832 65.9821 63.2456 65.988 63.2223 66.375C63.1867 66.8748 63.6832 66.8468 63.9725 66.922C69.0038 68.2283 68.126 69.7322 69.6913 68.9994C73.7625 67.0938 77.4246 63.6946 77.4628 58.277C77.4213 56.1207 76.5358 54.2188 74.8488 52.7105C72.4477 50.5608 69.5955 49.4956 66.5497 48.9677C62.8552 48.3286 59.1349 48.1347 55.3944 48.1981C53.6207 48.2276 51.8547 48.1126 50.1043 47.7801C48.1395 47.4056 46.4538 46.4819 45.1293 44.9043C43.241 42.6581 43.4579 40.0241 45.743 39.8457C50.0842 39.5059 51.9693 41.5133 54.8105 39.3371C55.6048 38.7289 55.777 37.7801 55.3996 36.8763C54.6552 35.1203 51.2119 33.8104 49.6259 34.7717ZM51.8036 36.7024C50.3651 36.7024 50.3651 35.7617 51.8036 35.7617C53.242 35.7617 53.242 36.7024 51.8036 36.7024ZM50.7089 31.862C48.8342 32.5122 48.1797 30.2984 46.9264 31.7934C46.2072 32.6463 45.4802 33.4956 44.7662 34.3493L44.5027 34.9331C44.7338 35.4838 47.3336 34.9117 48.1667 34.2741C49.6641 33.1277 50.4862 34.0816 51.232 32.6957C51.6883 31.8472 51.0604 31.7396 50.7089 31.862ZM50.1871 30.5542C52.1732 30.5748 55.0125 27.0363 53.7994 26.4311C52.8931 25.9785 52.851 28.1922 49.9508 30.3588C50.0984 30.482 50.1444 30.5542 50.1871 30.5542ZM55.0242 27.9438C53.6369 30.8446 52.2638 30.8756 52.4535 31.4189L53.1171 31.5206C55.2346 30.2512 55.8003 28.4547 55.9589 28.2741C56.2133 27.7072 55.3685 27.2228 55.0242 27.9438ZM46.7192 29.3939C46.852 29.8458 47.4016 29.8539 47.5673 29.7919C49.609 29.0378 51.1607 27.6592 52.2282 25.6858C52.5474 25.1012 51.6152 24.2402 51.0824 24.9081L47.0695 28.6685C46.8299 28.8203 46.615 29.0489 46.7192 29.3939ZM41.576 30.3559C39.0015 32.7385 35.966 34.3242 32.9533 35.9541C32.2567 36.3308 32.2515 36.7547 32.9138 37.2545C33.7417 37.8819 34.7095 37.9276 35.5964 37.9298C36.6037 38.0367 37.4783 37.8421 38.3082 37.43C41.2905 35.9423 43.5899 33.559 45.789 31.0474C46.1936 30.5852 45.8317 29.4713 45.0355 29.7632C43.3426 30.3846 42.1412 29.8354 41.576 30.3559ZM34.1586 27.772C31.3989 29.632 28.4807 31.1469 25.3035 32.0396C24.5111 32.2601 24.4302 32.7142 24.6555 33.4241C25.3048 35.4683 27.6754 35.9069 29.7327 35.4167C32.9973 34.6397 35.8515 32.9471 38.5736 30.9707C39.0792 30.6028 39.711 30.3117 39.9544 29.6983C40.1518 29.2081 39.4734 28.8763 39.476 28.3839C39.4844 26.8277 38.2266 27.4875 37.5941 27.1336C36.2807 26.3942 35.2313 27.0518 34.1599 27.7728L34.1586 27.772ZM30.6927 23.7602C26.7645 25.6128 22.648 26.8277 18.459 27.8133C17.4789 28.0433 17.3857 28.3935 18.0984 29.1565C19.3963 30.5498 21.8453 31.082 23.465 30.7569C27.6851 29.9224 31.4715 28.0271 34.9782 25.4668C35.1193 25.3636 35.3575 25.2759 35.2928 25.0407C35.1238 24.4259 33.9612 25.2995 31.6585 23.8281C31.3407 23.6253 31.0397 23.5973 30.6927 23.7602ZM25.1462 20.5564C22.2751 21.3268 19.3303 21.5516 16.3926 21.8546C14.2822 22.0713 12.1706 21.9674 10.0608 22.1362C9.34681 22.1937 9.14549 22.448 9.5216 23.1889C10.7386 25.5914 12.6477 26.6338 15.2429 26.5173C19.6106 26.5033 25.3488 24.4598 29.3352 22.5896C30.3761 22.1016 30.213 21.1941 29.1287 21.0776C27.1931 20.869 27.0507 20.0463 25.1462 20.5564ZM24.4412 19.0555C23.6113 18.2719 23.3109 16.9604 21.9935 16.6324C18.5561 15.7757 19.1542 13.5067 17.6207 13.6497C12.9811 14.0854 8.34212 14.5299 3.68829 14.7886C2.75868 14.841 1.82649 14.9022 0.902071 15.0105C-0.072845 15.1219 -0.178364 15.3474 0.210696 16.2689C0.503301 16.9634 0.922787 17.5664 1.40507 18.1311C3.40474 20.4539 6.04401 21.0194 8.46123 21.1432C15.1484 20.88 17.7068 20.8321 23.9317 19.5782C24.1706 19.5302 24.792 19.3887 24.4405 19.057L24.4412 19.0555ZM24.1861 15.3297C28.829 15.1351 32.8736 13.0503 36.8723 10.8366C38.1282 10.1429 35.8741 10.0773 33.8958 8.29915C33.4336 7.88485 33.005 7.84725 32.4464 8.06841C28.4269 9.65337 24.3752 11.127 20.2748 12.4569C19.9285 12.569 19.4339 12.5903 19.351 13.012C19.23 13.6224 20.0398 14.0876 20.0424 14.0876C21.2808 14.9995 22.6648 15.4219 24.1861 15.3297ZM31.9065 19.1027C34.9361 18.0455 37.688 16.4252 40.359 14.6073C41.4025 13.8966 42.1509 13.3268 41.7068 11.7765C41.0905 9.61357 40.3124 10.6604 38.7037 11.5679C34.3658 14.0139 29.9346 16.2055 24.9863 16.914C24.5079 16.9796 24.1169 17.0983 24.7331 17.7595C26.7153 19.9033 29.2899 20.0168 31.9065 19.1027ZM46.0331 16.9648C43.0125 20.0301 40.5415 22.1281 36.7959 24.1996C36.5312 24.3471 36.1602 24.4503 36.159 24.8388C36.157 25.2862 36.5105 25.5037 36.8451 25.6865C37.9411 26.2903 39.9654 25.8576 41.0264 25.444C43.3685 24.5299 44.9196 22.6316 46.5568 20.7754C47.6113 19.5767 47.6385 18.4952 46.9691 17.1676C46.6875 16.6029 46.492 16.4989 46.0331 16.9648ZM44.6684 16.0684C44.1726 15.5848 43.6249 15.1462 43.0533 14.768C42.6733 14.5174 42.3515 14.8904 42.0499 15.0931C37.9813 17.8229 36.0871 19.113 31.5731 20.7606C30.8487 21.0238 30.8506 21.4632 31.2611 22.0183C32.6872 23.9644 35.3659 23.4366 37.1429 22.4068C39.8275 20.8513 42.1535 18.7908 44.394 16.6169C44.5474 16.4702 44.838 16.2328 44.6684 16.0684ZM45.8136 14.6707C46.9342 14.939 47.891 15.0629 47.7434 16.6714C47.6929 17.2236 48.1628 17.5317 48.5843 16.9346C49.611 15.4868 50.5885 13.9991 50.5865 11.7315C50.3386 9.9711 49.8382 7.93056 48.6322 6.22028C44.8989 0.931672 39.6799 4.73189 35.1801 6.61615C34.7768 6.7857 34.7263 7.09164 35.0856 7.34302C36.3816 8.24902 37.6615 9.18526 39.3213 9.20737C40.2586 9.22064 41.1889 9.14913 42.1055 8.96262C42.8196 8.8174 42.8876 9.09311 42.782 9.73815C42.3736 12.2136 43.4909 14.1141 45.8136 14.6707ZM49.1514 25.0032C50.3483 23.5708 50.3386 23.5634 49.2582 22.1384C48.6788 21.3769 48.4593 20.5579 47.5841 21.6136C45.7003 23.8893 43.7602 26.106 40.9079 27.0872C40.0903 27.3666 40.2554 28.4539 40.9293 28.6191C41.3579 28.8417 41.8252 28.8741 42.2998 28.8697C45.1708 28.7422 47.3239 27.1904 49.1514 25.0032ZM56.7824 26.0087C56.8018 25.4492 56.5383 25.2206 56.0949 25.0009C53.2763 23.6069 50.2745 21.0702 48.4807 18.2158C48.3033 18.7584 48.5377 19.0194 48.6788 19.2885C50.4111 22.524 52.9487 24.8439 56.0664 26.5122C56.6134 26.8071 56.7707 26.5992 56.7824 26.0087ZM62.2823 31.0518C62.4791 26.6036 62.2564 22.1458 62.4791 17.6932C62.5212 16.8911 62.2286 16.4753 61.4025 16.5085C60.3778 16.5527 59.3478 16.538 58.3231 16.5085C57.6731 16.4908 57.4148 16.8034 57.4388 17.4521C57.4783 18.6287 57.5327 19.8074 57.5482 20.984C57.5857 24.6213 57.5107 28.2564 57.7327 31.8878V32.4775C57.7236 37.0297 57.789 41.5811 57.9017 46.131C57.9301 47.0687 58.246 47.3467 59.085 47.2405C60.7571 47.0275 61.9521 47.5015 61.9994 46.3714C62.0389 45.4889 62.103 44.6065 62.1289 43.7241C62.2622 39.5022 62.0933 35.2774 62.2823 31.0518ZM63.8256 26.5284C67.0216 24.9154 69.8039 22.8233 71.3414 19.2966C71.5032 18.9339 71.7589 18.5778 71.6159 18.1045C71.2579 18.2181 71.2119 18.5424 71.0753 18.782C69.4505 21.6054 67.3168 23.7875 64.2503 24.8093C63.4948 25.0651 62.7827 25.3939 63.1847 26.4488C63.3122 26.7894 63.6023 26.6412 63.8256 26.5284ZM67.601 31.0149C66.5387 30.1281 65.7605 29.0076 65.1099 27.7684C64.7319 27.057 63.4747 27.7086 64.1098 28.5055C64.7766 29.3423 66.3542 31.3364 67.4255 31.5221C67.7518 31.5789 67.8256 31.2044 67.601 31.0149ZM69.8266 30.061C68.7811 28.9589 67.6353 27.9527 66.9569 26.5203C66.6675 25.9128 65.8479 26.4687 66.1159 27.1049C66.4733 27.9482 66.9433 28.712 67.6049 29.3172C68.2703 29.9232 68.9552 30.535 70.015 30.4672C69.9308 30.2777 69.9043 30.1421 69.8266 30.061ZM68.0671 25.7595C68.976 27.4587 70.7678 29.3563 72.563 29.7374C73.288 29.8915 73.6253 29.1041 72.9287 28.7179C71.342 27.8435 70.2046 26.4879 69.2122 24.9648C68.9993 24.6397 68.7837 24.4075 68.3836 24.6943C67.9997 24.9692 67.8101 25.2848 68.0671 25.7595ZM74.5879 35.1462C74.8869 35.1167 75.2877 35.2693 75.4417 34.9331C75.6126 34.563 75.1964 34.3876 75.0002 34.1598C74.3633 33.4049 73.5638 32.7953 73.0556 31.9195C72.638 31.2007 72.1117 31.1381 71.4747 31.5243C70.0324 32.4009 68.9902 31.3231 68.8096 32.1524C68.5973 33.127 69.934 33.4447 70.4273 33.5641C72.875 34.1539 72.1053 35.3946 74.5879 35.1462ZM77.8356 36.8129C76.3267 36.3787 74.7892 36.1605 73.2291 36.2313C71.3744 36.3198 72.2975 34.9294 69.611 34.6043C67.7227 34.3773 66.237 35.2575 64.8432 36.4289C63.902 37.2199 63.8729 39.789 66.3742 40.2394C71.052 41.0813 71.4734 38.7753 73.9463 39.3747C76.1402 39.9114 76.8782 41.615 75.7796 43.7079C75.0915 45.0238 74.0033 45.8627 72.8109 46.6028C71.568 47.3754 70.1833 47.7337 68.5895 48.0639C69.7832 49.0171 71.8612 49.0982 73.5398 50.4296C74.8572 51.4749 75.8198 50.8314 76.9669 50.0315C79.3265 48.3706 81.2899 46.4392 81.7114 43.2398C82.1289 40.0721 80.7228 37.6452 77.8356 36.8129ZM68.0994 35.7617C69.5379 35.7617 69.5379 36.7024 68.0994 36.7024C66.661 36.7024 66.661 35.7617 68.0994 35.7617ZM80.5377 31.9416C79.2339 30.911 77.9554 29.7713 76.1305 30.0168L75.3123 29.8561C74.8714 29.7639 74.4079 29.4853 74.1043 30.134C73.8331 30.7097 74.0415 31.1211 74.4086 31.5339C75.8431 33.1285 77.3197 34.6817 79.0902 35.8524C81.0349 37.1373 84.4432 39.0363 86.7322 37.545C87.1161 37.2943 87.4463 36.9655 87.4605 36.4731C87.4851 35.9114 86.975 35.8516 86.6267 35.6931C84.4536 34.7053 82.4312 33.444 80.5377 31.9416ZM77.9217 28.8616C80.0677 28.7333 79.9577 27.2825 78.9433 26.9486C76.2839 26.0706 74.3484 24.193 72.66 21.9431C71.331 20.1716 71.5019 21.3614 70.2415 22.7754C69.8732 23.1911 69.9276 23.5708 70.2247 23.9998C71.0222 25.1447 71.9939 26.1082 73.0666 26.953C74.4655 28.0536 76.0354 28.709 77.9217 28.8616ZM94.819 32.047C91.937 31.5509 87.8399 29.0599 85.3806 27.4595C84.5267 26.9044 83.7933 26.7813 82.7795 26.9663C81.5476 27.1933 80.6872 27.4528 80.3603 28.9162C80.2127 29.5641 80.1389 29.9173 80.6924 30.2859C84.359 32.7252 87.9512 35.8745 92.4426 35.514L94.6047 34.7798C95.4942 34.2284 96.3092 32.3035 94.819 32.047ZM86.0156 24.7429C85.6796 24.8137 85.1767 24.583 85.0821 25.1329C84.9902 25.646 85.4621 25.8399 85.7839 26.0662C87.3602 27.1815 89.0614 28.0618 90.7912 28.8719C92.9799 29.8988 95.2391 30.7068 97.7088 30.9663C99.256 30.8469 100.791 30.5129 101.939 29.169C102.704 28.2719 102.605 27.9519 101.502 27.7367C97.4602 26.942 93.5644 25.6408 89.7871 23.9416C88.3597 23.2988 88.3319 24.2438 86.0169 24.7422L86.0156 24.7429ZM83.5013 24.2158C79.99 22.6788 77.2194 20.0684 74.5037 17.3791C73.3903 16.2785 73.3139 16.2888 72.8478 17.8119C72.6147 18.5822 72.2289 19.315 72.8698 20.1016C74.2312 21.7661 75.645 23.3651 77.3573 24.6346C78.5918 25.5516 79.979 25.9453 81.6343 25.9327C84.0904 25.9512 84.528 24.6692 83.5013 24.2158ZM88.2878 20.782C84.6523 19.6843 81.5081 17.5642 78.4137 15.3769C77.5087 14.7363 76.884 14.7142 76.0282 15.399C75.3323 15.9564 75.3252 16.3146 75.9188 16.9176C78.0706 19.1159 80.4607 20.9832 83.065 22.5409C84.6018 23.4595 87.4897 23.9283 88.7073 22.0728C89.1178 21.4477 89.0698 21.0186 88.2878 20.782ZM88.6924 19.2685C91.0287 20.2144 93.2479 19.2862 95.1084 18.0013C95.3796 17.8148 95.7913 17.5811 95.7007 17.1956C95.6042 16.7886 95.0656 16.8137 94.5704 16.7297C89.6382 15.8915 84.6633 14.1864 80.5655 10.9243C79.9745 10.4518 79.1012 10.0795 78.6429 10.7201C78.2059 11.3334 78.1639 12.3235 78.1121 13.1602C78.0765 13.7426 78.6986 13.9704 79.109 14.2306C82.1723 16.1886 85.3482 17.9106 88.6924 19.2685ZM103.882 21.9409C100.736 21.7462 97.6615 21.1042 94.6002 20.3832C92.985 20.0028 93.345 20.6611 90.9795 20.9862C90.45 21.0621 89.9891 21.1742 89.8997 21.8354C89.7962 22.6014 90.4222 22.639 90.8501 22.8004C93.8978 23.9482 101.531 26.4967 104.725 26.5726C107.239 26.5859 109.339 25.7182 110.724 23.3725C111.329 22.3456 111.176 22.0721 110.031 22.047C107.978 22.0028 105.93 22.0669 103.882 21.9409ZM102.809 13.5819C100.793 13.4071 101.227 15.413 99.1077 16.1746C97.4965 16.7533 97.1022 17.3231 96.1901 18.5564C95.9862 18.827 95.4987 18.9707 95.6101 19.3644C95.7272 19.7905 96.2225 19.7344 96.5688 19.7971C101.718 20.7238 107.28 21.1513 112.516 20.9796C115.716 20.8719 118.204 19.5177 119.693 16.4141C120.242 15.2649 120.108 15.0459 118.856 14.9464L102.809 13.5819ZM83.511 11.0091C86.0616 12.3839 88.684 13.5796 91.399 14.5498C92.82 15.057 94.2739 15.3843 95.8528 15.4639C97.4142 15.2634 99.0961 15.1779 100.314 13.7595C100.894 13.082 100.836 12.7665 100.029 12.5048C95.8069 11.1381 91.6178 9.67254 87.5039 7.98437C86.3322 7.50372 86.351 8.6707 83.5266 9.96742C83.2825 10.0795 82.9096 10.1008 82.9116 10.468C82.9116 10.8159 83.2695 10.8808 83.511 11.0091Z" fill="#CC8E1E"/>
</svg>
