<svg width="11" height="12" viewBox="0 0 11 12" fill="none" xmlns="http://www.w3.org/2000/svg">
<path d="M10.9782 7.67381C10.6297 8.81156 9.93141 9.81041 8.98256 10.5282C8.1495 11.1553 7.15817 11.5378 6.11986 11.6327C5.08154 11.7276 4.03733 11.5312 3.10442 11.0655C2.17152 10.5998 1.38685 9.8832 0.838486 8.99621C0.290124 8.10922 -0.000226109 7.08691 2.63972e-05 6.04404C-0.00372236 4.82678 0.391905 3.64191 1.12621 2.6712C1.84386 1.72214 2.84248 1.02365 3.97998 0.675117C4.05495 0.652027 4.13479 0.649816 4.21092 0.668722C4.28706 0.687627 4.3566 0.726934 4.41207 0.782414C4.46753 0.837895 4.50683 0.90745 4.52573 0.983599C4.54463 1.05975 4.54242 1.13961 4.51934 1.2146C4.27061 2.03754 4.24975 2.91256 4.459 3.74642C4.66824 4.58028 5.09974 5.34174 5.70753 5.94966C6.31531 6.55757 7.0766 6.98917 7.91027 7.19846C8.74395 7.40775 9.61877 7.38689 10.4415 7.13811C10.5165 7.11502 10.5963 7.1128 10.6725 7.13171C10.7486 7.15062 10.8182 7.18992 10.8736 7.2454C10.9291 7.30088 10.9684 7.37044 10.9873 7.44659C11.0062 7.52274 11.004 7.6026 10.9809 7.67759L10.9782 7.67381Z" fill="#D3CFC3"/>
</svg>
